<svg xmlns="http://www.w3.org/2000/svg" viewBox="0 0 284.5 241.77"><defs><style>.cls-1{fill:#f89721;fill-rule:evenodd;}.cls-2{fill:#fff;}</style></defs><title>logo-white</title><g id="Layer_2" data-name="Layer 2"><g id="Layer_1-2" data-name="Layer 1"><path class="cls-1" d="M234.27,95.43c-7-42.43-21.51-81.76-67.7-93.24C163.13,1.34,157-.14,153.46,0c-6.77.3-6.68,7.06,1.23,8.1a124,124,0,0,1,16.69,4.58c11.28,4.45,28.08,13.25,34.13,27.74,5,13.26-3.73,22.71-27.36,23.6a146.55,146.55,0,0,1-35.27-3.41c-22.41-4.84-28.15-11-46.15-19.52-5.09-2.4-10.21-3.7-15-2.87A13.37,13.37,0,0,0,69.53,30.3a13.74,13.74,0,0,0-3.71.52,12.71,12.71,0,0,0-9.58,11.43,13.37,13.37,0,0,0-.08,1.42A13.16,13.16,0,0,0,57,48.3c-1.49,1.31-8.2,7.94-7.74,20.3a21.7,21.7,0,0,1-2.83,12.22c-3.53,6-5.88,10.71-.73,14.93,3.35,2.73,8.21,6.78,12.09,8.52,4.15,1.86,7.89,1.44,12-3,2.76-3,4.79-5.59,7.34-7.14,12.9-7.83,26.92,9,15.76,24.83-4.76,6.78-18,16.47-23.34,20.59A14.81,14.81,0,0,0,87.73,163s30.52-23.71,52.93-37.41c8.65-5,21-10.84,33.36-12.54a81.51,81.51,0,0,1,10.41-.55c19.86.26,23.91,17.28,25.41,27.46.74,5.1,1.61,13.7,4.15,18.25,6,10.69,19.51,9.44,25.2,1.41,1.58-2.23,2.24-5.38,2.39-8.9.49-12.05-5.24-42.72-7.31-55.26"/><path class="cls-2" d="M214.76,178.65a1.17,1.17,0,0,1,1.18-1.2,1.19,1.19,0,0,1,1.2,1.2v.49a3.72,3.72,0,0,1,3.17-1.79,3.3,3.3,0,0,1,3.11,1.83,4.2,4.2,0,0,1,3.51-1.83c2.26,0,3.64,1.44,3.64,4v5.55a1.16,1.16,0,0,1-1.18,1.18,1.17,1.17,0,0,1-1.2-1.18v-4.83c0-1.65-.77-2.54-2.11-2.54s-2.22.91-2.22,2.58v4.79a1.17,1.17,0,0,1-1.18,1.18,1.18,1.18,0,0,1-1.21-1.18V182c0-1.61-.78-2.52-2.1-2.52a2.28,2.28,0,0,0-2.23,2.58v4.79a1.19,1.19,0,0,1-2.38,0Z"/><path class="cls-2" d="M232.78,185v0c0-2.25,1.75-3.35,4.29-3.35a8.79,8.79,0,0,1,2.79.43v-.25c0-1.48-.9-2.27-2.57-2.27a6.11,6.11,0,0,0-2.31.42,1.29,1.29,0,0,1-.37.06,1,1,0,0,1-1-1,1,1,0,0,1,.65-.94,8.83,8.83,0,0,1,3.35-.61,4.66,4.66,0,0,1,3.45,1.16,4.35,4.35,0,0,1,1.12,3.21v5.12a1.13,1.13,0,0,1-1.16,1.14,1.07,1.07,0,0,1-1.16-1v-.39a4.23,4.23,0,0,1-3.39,1.52c-2,0-3.68-1.13-3.68-3.21m7.12-.75v-.71a6.49,6.49,0,0,0-2.36-.41c-1.53,0-2.44.65-2.44,1.73v0c0,1,.89,1.57,2,1.57,1.57,0,2.77-.9,2.77-2.22"/><path class="cls-2" d="M245,174.67a1.17,1.17,0,0,1,1.18-1.18,1.2,1.2,0,0,1,1.21,1.18v7.68l4.47-4.39a1.37,1.37,0,0,1,1-.51,1,1,0,0,1,1,1.08,1.32,1.32,0,0,1-.53,1l-2.76,2.54,3.16,4.12a1.3,1.3,0,0,1,.31.79,1.07,1.07,0,0,1-1.12,1.08,1.21,1.21,0,0,1-1.05-.53l-3-4-1.57,1.5v1.81a1.18,1.18,0,0,1-1.21,1.18,1.17,1.17,0,0,1-1.18-1.18Z"/><path class="cls-2" d="M256.4,174.77a1.38,1.38,0,0,1,2.72,0v.12a1.37,1.37,0,0,1-2.72,0Zm.18,3.88a1.17,1.17,0,0,1,1.18-1.2,1.19,1.19,0,0,1,1.2,1.2v8.23a1.19,1.19,0,0,1-2.38,0Z"/><path class="cls-2" d="M262.07,178.65a1.2,1.2,0,1,1,2.39,0v.51a3.75,3.75,0,0,1,3.25-1.81c2.34,0,3.7,1.57,3.7,4v5.55a1.16,1.16,0,0,1-1.18,1.18,1.18,1.18,0,0,1-1.21-1.18v-4.83c0-1.61-.8-2.54-2.22-2.54a2.31,2.31,0,0,0-2.34,2.58v4.79a1.2,1.2,0,0,1-2.39,0Z"/><path class="cls-2" d="M274.89,190.23a1,1,0,0,1-.67-.95,1,1,0,0,1,1-1,1.06,1.06,0,0,1,.43.09,6.29,6.29,0,0,0,3.19.83c2.13,0,3.29-1.1,3.29-3.19v-.81a4.34,4.34,0,0,1-3.66,1.91,4.67,4.67,0,0,1-4.73-4.86v0a4.69,4.69,0,0,1,4.73-4.88,4.5,4.5,0,0,1,3.64,1.77v-.49a1.19,1.19,0,1,1,2.38,0v7.18a5.29,5.29,0,0,1-1.32,3.92,5.82,5.82,0,0,1-4.27,1.4,9,9,0,0,1-4-.92m7.27-8v0a2.9,2.9,0,0,0-3.05-2.85,2.81,2.81,0,0,0-3,2.85v0a2.84,2.84,0,0,0,3,2.86,2.91,2.91,0,0,0,3.05-2.86"/><path class="cls-2" d="M214.76,192.55a1.16,1.16,0,0,1,1.18-1.18,1.17,1.17,0,0,1,1.2,1.18v4.63a4.17,4.17,0,0,1,3.55-2c2.44,0,4.82,1.93,4.82,5.39v0c0,3.45-2.36,5.4-4.82,5.4a4.26,4.26,0,0,1-3.55-1.83v.53a1.19,1.19,0,0,1-2.38,0Zm8.33,8.11v0a3.08,3.08,0,0,0-3-3.32,3.13,3.13,0,0,0-3,3.32v0a3.14,3.14,0,0,0,3,3.33,3,3,0,0,0,3-3.33"/><path class="cls-2" d="M228,196.53a1.17,1.17,0,0,1,1.18-1.2,1.19,1.19,0,0,1,1.2,1.2v1.06a3.32,3.32,0,0,1,2.62-2.28,1.1,1.1,0,0,1,1.18,1.18,1.11,1.11,0,0,1-.94,1.14c-1.69.3-2.86,1.6-2.86,4.06v3.07a1.19,1.19,0,0,1-1.2,1.18,1.17,1.17,0,0,1-1.18-1.18Z"/><path class="cls-2" d="M234.92,202.85v0c0-2.24,1.76-3.35,4.29-3.35a8.56,8.56,0,0,1,2.8.44v-.26c0-1.48-.91-2.26-2.58-2.26a6.1,6.1,0,0,0-2.3.41,1.36,1.36,0,0,1-.38.06,1,1,0,0,1-1-1,1,1,0,0,1,.65-.94,8.79,8.79,0,0,1,3.35-.61,4.65,4.65,0,0,1,3.44,1.16,4.31,4.31,0,0,1,1.12,3.21v5.12a1.13,1.13,0,0,1-1.16,1.14,1.07,1.07,0,0,1-1.16-1v-.4a4.22,4.22,0,0,1-3.39,1.52c-1.95,0-3.68-1.12-3.68-3.21m7.13-.75v-.71a6.76,6.76,0,0,0-2.36-.41c-1.54,0-2.44.65-2.44,1.73v0c0,1,.88,1.58,2,1.58,1.58,0,2.78-.91,2.78-2.23"/><path class="cls-2" d="M247.17,196.53a1.17,1.17,0,0,1,1.18-1.2,1.19,1.19,0,0,1,1.2,1.2V197a3.79,3.79,0,0,1,3.25-1.81c2.34,0,3.7,1.58,3.7,4v5.55a1.16,1.16,0,0,1-1.18,1.18,1.17,1.17,0,0,1-1.2-1.18v-4.82c0-1.62-.81-2.54-2.23-2.54a2.31,2.31,0,0,0-2.34,2.58v4.78a1.19,1.19,0,0,1-2.38,0Z"/><path class="cls-2" d="M269.6,204.76a1.2,1.2,0,0,1-2.39,0v-.65a4.16,4.16,0,0,1-3.54,1.95c-2.44,0-4.82-1.95-4.82-5.4v0c0-3.44,2.34-5.39,4.82-5.39a4.25,4.25,0,0,1,3.54,1.83v-4.51a1.2,1.2,0,0,1,2.39,0Zm-8.35-4.14v0a3.1,3.1,0,0,0,3,3.33,3.13,3.13,0,0,0,3-3.33v0a3.11,3.11,0,0,0-3-3.32,3,3,0,0,0-3,3.32"/><path class="cls-2" d="M272.2,204.8a.91.91,0,0,1-.46-.83,1,1,0,0,1,1-1,1.16,1.16,0,0,1,.51.13,5.49,5.49,0,0,0,3,1c1,0,1.62-.43,1.62-1.12v0c0-.81-1.11-1.09-2.33-1.46-1.53-.43-3.25-1.06-3.25-3.05v0c0-2,1.64-3.17,3.71-3.17a7.08,7.08,0,0,1,3.27.85,1,1,0,0,1,.57.9,1,1,0,0,1-1,1,.91.91,0,0,1-.47-.12,5.72,5.72,0,0,0-2.44-.71c-.93,0-1.46.43-1.46,1v0c0,.77,1.12,1.09,2.34,1.48,1.52.47,3.23,1.16,3.23,3v0c0,2.19-1.69,3.27-3.86,3.27a7.05,7.05,0,0,1-3.95-1.24"/><path class="cls-2" d="M214.76,212.21a1.18,1.18,0,0,1,1.18-1.21,1.2,1.2,0,0,1,1.2,1.21v1.06a3.32,3.32,0,0,1,2.62-2.29,1.18,1.18,0,0,1,.24,2.33c-1.7.29-2.86,1.59-2.86,4.05v3.08a1.19,1.19,0,0,1-1.2,1.18,1.17,1.17,0,0,1-1.18-1.18Z"/><path class="cls-2" d="M222,216.38v0a5.54,5.54,0,0,1,11.08,0v0a5.44,5.44,0,0,1-5.57,5.42,5.38,5.38,0,0,1-5.51-5.38m8.7,0v0a3.22,3.22,0,0,0-3.19-3.35,3.12,3.12,0,0,0-3.13,3.31v0a3.21,3.21,0,0,0,3.17,3.33,3.12,3.12,0,0,0,3.15-3.29"/><path class="cls-2" d="M234.78,218.53v0c0-2.25,1.76-3.35,4.3-3.35a8.79,8.79,0,0,1,2.79.43v-.25c0-1.48-.9-2.27-2.58-2.27a6.09,6.09,0,0,0-2.3.42,1.8,1.8,0,0,1-.37.05,1,1,0,0,1-1-1,1.06,1.06,0,0,1,.65-.95,9,9,0,0,1,3.35-.61,4.63,4.63,0,0,1,3.44,1.17,4.3,4.3,0,0,1,1.13,3.21v5.11a1.15,1.15,0,0,1-1.17,1.15,1.09,1.09,0,0,1-1.16-1v-.39a4.21,4.21,0,0,1-3.38,1.51c-1.95,0-3.69-1.12-3.69-3.2m7.13-.75v-.71a6.53,6.53,0,0,0-2.36-.41c-1.54,0-2.44.64-2.44,1.73v0c0,1,.88,1.57,2,1.57,1.57,0,2.77-.9,2.77-2.22"/><path class="cls-2" d="M247,212.21a1.18,1.18,0,0,1,1.18-1.21,1.21,1.21,0,0,1,1.21,1.21v1.06C250,212,251,211,252,211a1.18,1.18,0,0,1,.24,2.33c-1.69.29-2.85,1.59-2.85,4.05v3.08a1.2,1.2,0,0,1-1.21,1.18,1.17,1.17,0,0,1-1.18-1.18Z"/><path class="cls-2" d="M58.59,194.29c-2-.86-4.51.08-5.91,1.14S49.39,198,47,199.87q-9.21,7.38-15.51,8.53a10.47,10.47,0,0,1-5,.34A4.24,4.24,0,0,1,24,206.3c-.9-2-1.31-5-1.21-8.94.07-3.38,1.21-15.83,7.6-25.92.91-1.44,2.72-4.55,5-6.36h0a5.07,5.07,0,0,1,2.35-1.24h0a6.56,6.56,0,0,1,5.16,1.2l0,0A18.59,18.59,0,0,1,46.56,168a21.33,21.33,0,0,0,4.86,3.16c3.66,1.6,10.8,1.07,6.42-10.35s-11.12-16.2-11.12-16.2h0A14.23,14.23,0,0,0,44.42,143q-6.3-3.24-14.43-1.08a28.41,28.41,0,0,0-14.23,8.67Q2.68,164.7.24,189.7a54.78,54.78,0,0,0,.14,11.52,39.92,39.92,0,0,0,2.3,9.89q3.25,8.26,9.15,12.47c.54.4,1.08.76,1.6,1.09v0s9.71,7,23.63.49l.29-.14c.79-.36,1.6-.75,2.45-1.19q8.53-4.33,16-13.82a29.31,29.31,0,0,0,4-5.79c.58-1.34,1.74-3.88,1.74-6,0-1.8-1-3.13-2.95-4"/><path class="cls-2" d="M189.12,182.75q-2.26-.66-5.43-1.31-.33,0-.27-.27a3.09,3.09,0,0,1,.75-.95c.45-.45,1.15-1.11,2.1-2,1.9-1.71,3.31-3.07,4.23-4.06s2-2.24,3.09-3.73q5.34-6.78,6.57-12.33a18.21,18.21,0,0,0-1.06-12.4c0-.08-.09-.14-.13-.22-3.53-6.64-10.68-9.67-13.51-10.65-8.1-2.63-22.19-4.71-38.73,3.47-3,1.78-4.47,4.56-4.53,8.38q-.1,6.4,0,13.38c.09,4.66.2,8.29.34,10.91q.74,9.63,1.59,19.62a115.44,115.44,0,0,0,1.72,13.79c.74,3.11,2.23,7.33,5.1,10.3a28,28,0,0,0,2.61,2.11l.25.19a32.37,32.37,0,0,0,3.81,2.3,35.57,35.57,0,0,0,20.47,3c.78-.15,1.57-.32,2.39-.55a31.6,31.6,0,0,0,15-10.23c1-1.27,5.3-5.73,5.29-12.77a23,23,0,0,0-.63-5.12c-2.06-7.67-9.43-10.38-11-10.88M163.68,167V156.43s9.85-3.92,13.1,2a3,3,0,0,1,.15.31s0,.08.07.13a5.5,5.5,0,0,1,.23.59h0v0h0a4.19,4.19,0,0,1,.12.49l0,.15a9.76,9.76,0,0,1-2.31,7.68c-1.74,2.33-5.22,4.33-11.27,4.79a32.86,32.86,0,0,1-.13-5.57m18.73,39.4c-5.93,4.7-12.1,3.79-15.81,1.2a1.73,1.73,0,0,0-.29-.23,7.64,7.64,0,0,1-2-2.52c-.05-.12-.1-.23-.14-.35v0c-1.25-2.9-.52-8.17-.52-8.17a45.77,45.77,0,0,1,4.71-1.11,25.84,25.84,0,0,1,14.1.49c.38.12.75.25,1.08.37.18.07.34.16.5.24a4.06,4.06,0,0,1,2.45,4.24c-.33,1.95-1.9,4.11-4.09,5.86"/><path class="cls-2" d="M133.66,172.84q-1.87-11.09-5.52-17a5.78,5.78,0,0,0-2.65-2.26c-3.34-1.42-6.15-.87-8.46,1.66a5.79,5.79,0,0,0-1.36,5.32h0s3.27,14.63-2.26,36.15c-.34,1.09-.7,2.16-1.07,3.19-6.61,16.46-13.63,11.21-15,5.18A88,88,0,0,1,94.31,192Q91.66,177.36,83,172.44a6,6,0,0,0-.81-.39,10.51,10.51,0,0,0-5.85-.47c-2,.39-6.48,3.16-7.45,8.77a52,52,0,0,0-.71,8.2,56,56,0,0,0,.13,6c1.9,22,5.16,27.79,11.57,36.87a25.46,25.46,0,0,0,7,6.78,20.74,20.74,0,0,0,8.37,3.38q8.81,1,17.38-4.57a41.56,41.56,0,0,0,14-15.89,75.05,75.05,0,0,0,7-23.51,98,98,0,0,0,.68-12.7,94.35,94.35,0,0,0-.61-12.1"/></g></g></svg>