<svg xmlns="http://www.w3.org/2000/svg" viewBox="0 0 500 500"><defs><style>.cls-1{fill:#f89721;}</style></defs><title>Branding</title><g id="Layer_2" data-name="Layer 2"><g id="Layer_1-2" data-name="Layer 1"><path class="cls-1" d="M285.16,0V14.5H93.1V92.85H14.83V313.48H0V82a26.31,26.31,0,0,0,2.24-1.8q39-39,78-78A24.49,24.49,0,0,0,82,0ZM77.86,78V27.49L27.3,78Z"/><path class="cls-1" d="M500,0q0,119.57-.11,239.14a21.94,21.94,0,0,1-2.13,9.25c-7.28,15.05-14.86,30-22.35,44.91-.64,1.28-1.4,2.51-2.41,4.32-4.39-8.73-7.92-17.36-12.8-25.14-11.54-18.4-14.66-38.05-14.36-59.7,1-70.91.42-141.85.45-212.78ZM461.14,87.35c-.11,1.22-.22,1.86-.22,2.5q0,73.93,0,147.87a8,8,0,0,0,.41,3.33c3.76,7.71,7.64,15.35,11.78,23.62,3.71-7.44,7.23-14.2,10.43-21.1a18.31,18.31,0,0,0,1.73-7.39q.15-72,.06-144c0-1.57-.16-3.13-.26-4.87Zm23.95-44.57V14.93H461.24V42.78Zm-.15,29.42V58H461.27V72.2Z"/><path class="cls-1" d="M0,328.13H14.48V485H352.1V471.26h14.71V500H0Z"/><path class="cls-1" d="M367.19,0V33.53H352.43V14.89H299.8V0Z"/><path class="cls-1" d="M420.41,277.12l-49.3,27.95q-60.19,34.17-120.44,68.24c-1.64.93-4.56,1.38-6,.55-24.83-13.85-49.54-27.94-74.27-42a7.11,7.11,0,0,1-1-1.05c2.19-3.93,4.45-8,6.92-12.4,1.57.81,3,1.47,4.33,2.24,21,11.94,42.08,23.94,63.22,35.74,1.59.89,4.48,1.12,6,.28Q323.52,315.16,397,273.31a17.14,17.14,0,0,0,1.78-1.48H311V257.17H435.12V457.26H134.83v-14.6H420.41Z"/><path class="cls-1" d="M381.58,64.83H162V196.11h219.4V121.24h14.68v89.92H147v-161H396.12V106H381.58Z"/><path class="cls-1" d="M73.6,277V442.5h46.11v14.76H58.94v-200H295.62v14.14H96.11l-.38,1.06,68,38.66L156.47,324Z"/><path class="cls-1" d="M217.12,172.21c-23.28-.54-41.82-19.71-41.15-42.55A42,42,0,0,1,219,89c22.33.51,41.13,20.2,40.43,42.36C258.71,154.46,239.79,172.74,217.12,172.21ZM244.36,131a26.67,26.67,0,1,0-27.28,26.31C232.31,157.5,244.23,146,244.36,131Z"/><path class="cls-1" d="M316.29,108.86V123H277.62V108.86Z"/><path class="cls-1" d="M29.73,115.17h14v38.76h-14Z"/><path class="cls-1" d="M277.77,138h38.41v14.35H277.77Z"/><path class="cls-1" d="M365,123.07H331.42V108.74H365Z"/><path class="cls-1" d="M352.4,243.67v-19h14.34v19Z"/><path class="cls-1" d="M345.64,138.19v14.17H331.37V138.19Z"/><path class="cls-1" d="M43.81,169.22v14H29.58v-14Z"/><path class="cls-1" d="M29.56,212.52V198.43H43.62v14.09Z"/><path class="cls-1" d="M342.65,427.91H328.47V413.53h14.18Z"/><path class="cls-1" d="M357.79,427.85V413.53H372v14.32Z"/><path class="cls-1" d="M401.49,413.58v14.21H387.17V413.58Z"/></g></g></svg>