<svg xmlns="http://www.w3.org/2000/svg" viewBox="0 0 198.91 166.06"><defs><style>.cls-1{fill:#f89721;fill-rule:evenodd;}</style></defs><title>Asset 2</title><g id="Layer_2" data-name="Layer 2"><g id="Layer_1-2" data-name="Layer 1"><path class="cls-1" d="M191.57,95.43c-7-42.43-21.51-81.76-67.7-93.24-3.44-.85-9.61-2.33-13.11-2.18-6.77.3-6.68,7.06,1.23,8.1a124,124,0,0,1,16.69,4.58c11.28,4.45,28.08,13.25,34.13,27.74,5,13.26-3.73,22.71-27.36,23.6a146.55,146.55,0,0,1-35.27-3.41C77.77,55.78,72,49.58,54,41.1c-5.09-2.4-10.21-3.7-15-2.87A13.37,13.37,0,0,0,26.83,30.3a13.74,13.74,0,0,0-3.71.52,12.71,12.71,0,0,0-9.58,11.43,13.37,13.37,0,0,0-.08,1.42,13.16,13.16,0,0,0,.83,4.63c-1.49,1.31-8.2,7.94-7.74,20.3A21.7,21.7,0,0,1,3.72,80.82C.19,86.8-2.16,91.53,3,95.75c3.35,2.73,8.21,6.78,12.09,8.52,4.15,1.86,7.89,1.44,12-3,2.76-3,4.79-5.59,7.34-7.14,12.9-7.83,26.92,9,15.76,24.83-4.76,6.78-18,16.47-23.34,20.59A14.81,14.81,0,0,0,45,163S75.55,139.26,98,125.56c8.65-5,21-10.84,33.36-12.54a81.51,81.51,0,0,1,10.41-.55c19.86.26,23.91,17.28,25.41,27.46.74,5.1,1.61,13.7,4.15,18.25,6,10.69,19.51,9.44,25.2,1.41,1.58-2.23,2.24-5.38,2.39-8.9.49-12.05-5.24-42.72-7.31-55.26"/></g></g></svg>