<svg xmlns="http://www.w3.org/2000/svg" viewBox="0 0 500 499.94"><defs><style>.cls-1{fill:#f89721;}</style></defs><title>Illustration</title><g id="Layer_2" data-name="Layer 2"><g id="Layer_1-2" data-name="Layer 1"><path class="cls-1" d="M437.41,286c16.64.15,33.2.15,49.21,0,7.78-.07,12.9-5,13-12.51.3-16.19.31-33.09,0-50.23-.13-7.83-5.11-12.58-13.33-12.69-3.18-.05-6.41,0-9.54,0h-5.66l-.16-1.32c-9.83-78-41.25-128.93-98.88-160.15l-5.24-2.83h6l13.5,0c12,0,23.3,0,34.64-.11,4.26,0,5.26,2.64,6.07,4.8l.17.45a37.36,37.36,0,0,0,44.1,22.83c17-4.33,29.28-20.41,28.67-37.4A38,38,0,0,0,468.1.51a37.59,37.59,0,0,0-41,23.75c-1.47,3.95-3.48,5.36-7.69,5.36h-.06c-32.15-.1-64.85-.09-96.47-.08h-34.8V28c0-1.59,0-3.13,0-4.61,0-3.12,0-6.06,0-9C287.82,5,282.93.17,273.5.14,257.64.07,242,.07,226.89.14c-9.41,0-14.26,4.87-14.41,14.35,0,3.18,0,6.43,0,9.58,0,1.45,0,2.91,0,4.37v1.39l-1.39.11-1.51.15c-.81.08-1.4.14-2,.14H176.7c-31.62,0-64.31,0-96.46.11h0c-4.87,0-5.91-2.89-6.92-5.68A37.61,37.61,0,0,0,31.51.68C13.92,3.62.47,19.42.24,37.42A37.64,37.64,0,0,0,72.8,51.78c1.44-3.65,3.51-5.09,7.33-5.09h.19c9.1.11,18.36.1,27.32.09H121.7a19.71,19.71,0,0,1,2.87.31c.55.09,1.16.19,1.86.28L131,48,127,50.19C70,81.38,38.83,132,29,209.58l-.17,1.32H27.46c-1.47,0-2.93,0-4.39,0l-4.34,0c-1.75,0-3.51,0-5.24.07C5,211.17.1,216.17.05,224.65,0,238.87,0,254.46.05,272.3c0,9.28,4.73,14,14,14.05,16.13.06,32.52,0,46.62,0,10.18,0,14.93-4.71,15-14.78.05-14.22.05-29.12,0-45.56,0-10.24-4.91-15-15.34-15.12H45.7l.22-1.7C53.19,153,72.18,113.32,105.69,84.4,133,60.83,166.44,49,210.9,47.05l1.58-.07v1.58c0,1.64,0,3.2,0,4.72,0,3.12,0,6.08.05,9,.25,8.59,5.12,13.33,13.7,13.37,16,.06,32.05,0,47.15,0,9.86,0,14.53-4.65,14.69-14.55,0-2.91,0-5.77,0-8.81,0-1.39,0-2.81,0-4.25V46.42l1.61.11,4.1.25c2.64.16,4.93.29,7.26.5,27.63,2.43,51.1,9.4,71.77,21.31,29.26,16.86,50.6,41.94,65.23,76.68,8.12,19.28,13.3,40.09,15.83,63.61l.18,1.67h-6.51c-3.47,0-6.75,0-10.06,0-8,.12-13.07,5-13.16,12.79-.19,16.29-.19,33,0,49.73C424.38,281,429.4,285.92,437.41,286ZM462.12,16.84h.09a20.85,20.85,0,0,1,21,21.15,20.5,20.5,0,0,1-6.25,14.58,21.26,21.26,0,0,1-14.95,6h-.34a20.65,20.65,0,0,1-20.36-21.18A20.6,20.6,0,0,1,462.12,16.84ZM52.94,52.57a20.83,20.83,0,0,1-14.86,6.17H38a20.87,20.87,0,1,1,14.93-6.17Zm5.57,175.27v41.72H16.9V227.84ZM271,58.67H229.27V17.13H271ZM441,227.53H482.9V269H441Z"/><path class="cls-1" d="M364.47,332.7c-34.29-69.69-68-138.63-105.45-215-2.15-4.38-4.34-7.11-8.64-7.17-4.57-.06-6.81,2.74-9,7.3-33.76,69-69.7,142.38-105.44,215.06-2.57,5.22-2.14,9.21,1.48,13.77,14.16,17.85,28.43,36.08,42.23,53.72L193,417.44c.67.85,1.32,1.74,2.06,2.77.39.54.81,1.13,1.29,1.78l1.76,2.4H184.83c-1.85,0-3.65,0-5.45,0-15.64.15-25.57,9.79-25.92,25.16-.3,13.14-.18,26.14,0,37.12.12,8,5.39,13.21,13.43,13.22,53.59.06,109.63.06,166.57,0,8.23,0,13.42-5,13.55-13.11.17-11.24.31-24.5,0-37.64-.37-14.8-10.29-24.52-25.29-24.75-3.48-.06-7,0-10.79,0h-8.83l1.77-2.4,1.43-1.95c.72-1,1.24-1.71,1.79-2.41q6.92-8.78,13.82-17.57c13.71-17.46,27.89-35.5,42-53.15C366.62,342.16,367.09,338.05,364.47,332.7ZM318.93,441.13c9.57,0,11.38,1.83,11.39,11.51V483H170.25v-1.51q0-4.17,0-8.34c0-8.37-.08-17,.27-25.53.1-2.38,3-4.26,5.43-5.76l.43-.28a5.91,5.91,0,0,1,3.79-.5c.38,0,.77.07,1.13.07H318.93Zm26.29-98.68c-18.09,22.74-37.54,47.43-61.23,77.71-2.39,3.06-4.83,4.33-8.36,4.33h-.18c-15-.19-31.17-.2-50.77,0a9.29,9.29,0,0,1-8.19-3.93c-22.26-28.59-44.48-56.85-61.36-78.27-1.75-2.23-3.17-4.56-1.24-8.47,24.73-50.2,49.77-101.28,74-150.68L247,144.17c.31-.63.66-1.21,1.15-2l.95-1.61,1.42-2.44,13.37,27.3,25.59,52.2,10.72,21.88c15,30.69,30.59,62.42,46,93.57C348,336.74,347.73,339.29,345.22,342.45Z"/><path class="cls-1" d="M236.2,309.84a37.3,37.3,0,0,0-23,42.28,38.1,38.1,0,0,0,37.08,30.27h.64a38,38,0,0,0,36.39-31.16,37.56,37.56,0,0,0-23-41.39c-5.07-1.95-6-4.9-5.91-9,.19-7.2.15-14.53.12-21.63q0-3.59,0-7.19h-.12v-1.51q0-5,0-10c0-7.88.08-16-.11-24a8.21,8.21,0,0,0-2.49-5.83,8,8,0,0,0-5.53-2.16H250c-4.31.13-7.49,3.36-7.9,8.06-.12,1.37-.12,2.74-.11,4.19v.91q0,7.2,0,14.4c0,14.67,0,29.84.1,44.76C242.12,305.1,241.17,308,236.2,309.84Zm14.72,13.94a20.94,20.94,0,0,1,20.39,21.28,21.21,21.21,0,0,1-21.14,20.59h-.61A21.13,21.13,0,0,1,235,359a20.75,20.75,0,0,1-5.86-14.77,21,21,0,0,1,21.74-20.45Z"/><path class="cls-1" d="M250.13,205.55h.1a8,8,0,0,0,8.08-8,7.9,7.9,0,0,0-8-8.18,8.11,8.11,0,0,0-5.81,2.26,8.15,8.15,0,0,0,5.6,13.93Z"/></g></g></svg>