<svg xmlns="http://www.w3.org/2000/svg" viewBox="0 0 500 500"><defs><style>.cls-1{fill:#f89721;}</style></defs><title>Marketing</title><g id="Layer_2" data-name="Layer 2"><g id="Layer_1-2" data-name="Layer 1"><path class="cls-1" d="M257.84,178.51l-.71-.22v-.74q0-7.43,0-14.84c0-11.25,0-22.89-.07-34.31a23.2,23.2,0,0,0-19.8-22.93c-10.79-1.75-21.55,4.84-25.57,15.7a14.7,14.7,0,0,1-4.51,6.33,167.9,167.9,0,0,1-60.87,29.42c-19.27,5-39.2,5-58.47,5.09-19.53,0-35.6,13.7-38.24,32.48-1,7.24-1,14.79-.9,22.09,0,4.14.07,8.42-.09,12.62-.72,18.65,7,32,23.46,40.82l1.32.7-1.15.95L71,272.78c-.78.67-1.46,1.24-2.16,1.78L55.35,284.93c-16.85,13-34.27,26.45-51.48,39.57C1,326.68,0,328.64,0,332c.12,43.88.11,88.49.11,131.63v36H273.34v-5.41q0-19.47,0-38.95c-.05-38.31-.09-77.92.25-116.88.07-7.71-1.4-13.66-8.82-17.59-6.53-3.47-8.89-8.07-7.89-15.39.87-6.4.67-13.09.47-19.56-.09-2.82-.18-5.73-.18-8.6V256.87l.72-.22c20.39-6.2,31-19,31.42-37.93C289.76,198.66,279.18,185.13,257.84,178.51ZM224.76,234.3V201.16q0-34.53,0-69.07c0-.4,0-.79,0-1.19a16,16,0,0,1,.25-4.08c1.12-4.7,4.26-7.29,8.86-7.29h0c4.58,0,7.73,2.58,8.85,7.28a15.74,15.74,0,0,1,.25,4.1c0,.39,0,.78,0,1.17v171c0,.38,0,.77,0,1.15a16.62,16.62,0,0,1-.17,3.58c-.93,5-4.19,7.82-8.95,7.82h0c-4.76,0-8-2.85-9-7.82a17.09,17.09,0,0,1-.16-3.56c0-.39,0-.78,0-1.17Q224.76,268.71,224.76,234.3Zm-113-58.37,1,0a185.24,185.24,0,0,0,95.94-31.65l1.56-1.06V292l-1.56-1.05c-29.36-19.64-60.74-30-95.93-31.56l-1-.05Zm17.67,98.68V339.3l-.65.24-.54.21a1.94,1.94,0,0,1-.81.2c-1.52,0-3.21.17-4.85.33s-3.41.34-5,.34a9.79,9.79,0,0,1-5.9-1.48c-2.71-2-3.33-6.5-3.93-10.84-.2-1.45-.39-2.82-.65-4.07-2.43-11.75-4.75-23.38-7.21-35.68q-1.41-7.1-2.88-14.39l-.25-1.27ZM65,242.41l-.45-1.32H78.71V226.88H63.25V208.42H78.79V194.59H65.25l.13-1.11c1.31-11.47,13.3-18.2,30.54-17.14l.94.06v81.86l-.8.17a33.11,33.11,0,0,1-6.88.74C77.84,259.17,68.54,252.94,65,242.41Zm18.82,38.51,14.65,73h45.1V277.77l1.24.31c24.39,6,45.42,16.17,64.31,31.13,1.32,1.05,2,2.86,2.53,4.46.09.25.17.49.26.73a24,24,0,0,0,13,13.81,21.54,21.54,0,0,0,17.29-.12c5.13-2.27,8.36-1.42,11.91,3.16l.57.73-76.1,70.3-.68-.63c-1.12-1-2.21-2.07-3.29-3.1a96.82,96.82,0,0,0-7.83-7,12.82,12.82,0,0,0-6.86-2.79c-15.62-.28-31.09-.28-46,0a13.69,13.69,0,0,0-7.34,2.88,82.26,82.26,0,0,0-7.64,6.8c-1.09,1-2.2,2.12-3.35,3.18l-.68.63L18.2,331.45ZM14.61,347.47l69.84,64.46L14.61,476.42Zm11.11,138L36.9,475.17l17.64-16.31,14.71-13.57c13.83-12.76,28.13-26,42.12-39a12.14,12.14,0,0,1,9.22-3.54c5.45.1,11,.09,16.38.09,5.57,0,11.33,0,17,.09a11.3,11.3,0,0,1,6.91,2.48c23.77,21.76,47.83,44,71.1,65.49l11.5,10.62c.41.38.77.79,1.23,1.31l.87,1,1.52,1.68Zm233.09-138V476.37L189,412Zm-.15-106.89-1.26.34V194.63l1.16.18c8.6,1.36,16.28,11.25,16.75,21.58C275.82,227.49,268.67,237.89,258.66,240.6Z"/><path class="cls-1" d="M467.61,110.75c0-16,.07-34.83,0-53.62a74.74,74.74,0,0,0-.91-10.91C462.64,19.87,439.12,0,412,0h0c-27.35,0-51.28,20.33-54.47,46.27-1.58,12.89-1.33,26.26-1.09,39.19l.06,3.57c.33,18.79,8.49,33.9,24.26,44.94a51.76,51.76,0,0,0,29.87,9.6V129.63c-25.48-2.89-40.07-19.26-40.08-45q0-4.26,0-8.53c0-6.82,0-13.88.06-20.83.34-22.13,17.66-40.14,39.42-41,22.58-.93,41.93,15.93,43.12,37.53.83,15.18.63,30.67.44,45.64-.06,5-.13,10.07-.16,15.11a8.84,8.84,0,0,1-2.64,6.37,9,9,0,0,1-6.56,2.52c-4.73-.11-8.37-3.66-8.83-8.65a32.54,32.54,0,0,1-.08-3.41c0-.41,0-.82,0-1.23q0-8.08,0-16.18c0-12.1.07-24.62-.11-36.92A23.18,23.18,0,0,0,412,32.39h0a23.25,23.25,0,0,0-23.22,22.54c-.23,10.58-.23,21.65,0,33.85a22.42,22.42,0,0,0,17.52,21.63,42.23,42.23,0,0,0,9,.64c1.36,0,2.77,0,4.19,0l.17-.14.56.22c.3.12.65.26.85,1.81l.05.19h0v0c1.56,13.8,11.66,23,24.51,22.39S467.58,124.53,467.61,110.75ZM421,87.24a10.6,10.6,0,0,1-3,7.54,8.52,8.52,0,0,1-6,2.33h-.26c-5.22-.13-8.78-4-8.84-9.75-.11-10.08-.11-20.47,0-30.88a10.43,10.43,0,0,1,2.92-7.5,8.56,8.56,0,0,1,6.35-2.38c5.16.12,8.72,4,8.85,9.74.09,3.64.07,7.35.05,10.93,0,1.59,0,3.18,0,4.77s0,3,0,4.53C421.09,80.06,421.11,83.68,421,87.24Z"/><path class="cls-1" d="M411.92,323.88h-.1a88.06,88.06,0,0,0,0,176.12h.08a88.06,88.06,0,0,0,0-176.12Zm.14,161.93H412a73.88,73.88,0,0,1-.13-147.75h.07a73.88,73.88,0,0,1,.14,147.75Z"/><path class="cls-1" d="M356.54,178.5V289.19H467.42V178.5Zm96.63,96.38H370.84V192.53h82.33Z"/><polygon class="cls-1" points="327.95 148.61 318.95 139.6 286.46 172.09 295.43 181.12 327.95 148.61"/><polygon class="cls-1" points="318.78 294.83 328.02 286.08 295.81 253.86 287.07 263.01 318.78 294.83"/><rect class="cls-1" x="307.97" y="210.88" width="29.8" height="13.54"/><path class="cls-1" d="M372.52,431.16A20.68,20.68,0,0,0,382,448.44a19.72,19.72,0,0,0,19.06,1c12.93-6,25.12-12.25,39.73-19.84,6.9-3.59,10.54-9.69,10.53-17.66s-3.67-14.08-10.56-17.65c-12.83-6.65-26.1-13.53-39.73-19.83a21,21,0,0,0-8.77-2,19.25,19.25,0,0,0-10.27,3,20.69,20.69,0,0,0-9.5,17.32c-.09,4.39-.07,8.87,0,13.19q0,3,0,6c0,2,0,4,0,6C372.45,422.29,372.42,426.77,372.52,431.16Zm14.17-36.86c.06-4.25,1.59-6.08,2.87-6.85s3.46-1.29,7.07.48c11.28,5.55,23.4,11.57,35.65,18,2,1,4.77,3.76,4.58,5.93-.21,2.41-2.63,5.1-4.75,6.22-11.33,6-22.64,11.57-35.2,17.76a10.54,10.54,0,0,1-4.56,1.26,5.13,5.13,0,0,1-2.74-.74c-1.9-1.16-2.88-3.55-2.92-7.1-.05-4.11,0-8.29,0-12.33,0-1.79,0-3.59,0-5.39s0-3.53,0-5.3C386.65,402.32,386.63,398.28,386.69,394.3Z"/><rect class="cls-1" x="389.08" y="210.7" width="45.86" height="13.75"/><rect class="cls-1" x="388.91" y="243.16" width="45.93" height="13.57"/></g></g></svg>