<svg xmlns="http://www.w3.org/2000/svg" viewBox="0 0 500 500"><defs><style>.cls-1{fill:#f89721;}</style></defs><title>Packeging</title><g id="Layer_2" data-name="Layer 2"><g id="Layer_1-2" data-name="Layer 1"><path class="cls-1" d="M488.14,500H11.72A21.55,21.55,0,0,1,0,488.28V402.34c4.12-10.11,12.26-12.95,22.72-11.57-2.18-23.88-4.28-46.93-6.42-70.32C8,320.24,3.18,315.51,0,308.59v-7.81a42.45,42.45,0,0,0,1.78-4.39Q10.63,264.71,19.41,233c2.92-10.5,7.75-14.24,18.51-14.25h91.9c.29-2.65.61-4.88.77-7.13q2.5-34.8,4.95-69.62c1.4-20,2.81-39.93,4-59.9.09-1.53-.8-3.9-2-4.58-4.46-2.56-5.39-6-4.18-10.7,5-19.52,9.79-39.09,14.71-58.63C149.82,1.46,151.74,0,158.7,0H466.22c7.42,0,10,2.51,10.22,9.87q2.94,122.76,5.83,245.52c1,44.56,1.07,89.17,8.72,133.29.28,1.62.79,3.7,1.94,4.57,5.36,4,7,9.34,7,15.78-.14,23.6-.35,47.21.08,70.8C500.17,489.44,497,496.15,488.14,500ZM415,390.37c2.31-19.09,5.31-38,6.74-57.11,2.56-34.23,4.17-68.52,6.19-102.79q4.32-73.82,8.65-147.62c.09-1.41,0-2.83,0-4.36H335.84v7.64c0,2.44.1,4.89,0,7.32-.38,6.35-5.43,9.55-11.26,7.2a13.12,13.12,0,0,1-3.06-1.48c-6-4.56-12-4.57-18,0-.13.09-.29.15-.42.23-4.1,2.65-8.36,3-12.3,0-6.59-4.88-12.55-4.13-19.44,0-8.11,4.86-13.54,1.19-13.55-8.24q0-35.14,0-70.29v-5H162.23L150.64,62.5h87.61a40.08,40.08,0,0,1,4.39.07,7.76,7.76,0,0,1-.1,15.49,42.63,42.63,0,0,1-4.38.06H155.67c-3.35,47.16-6.64,93.65-10,140.62h5.74q38.79,0,77.59,0c8.55,0,14.16,3.87,16.42,11.82q10,35.16,19.54,70.43c2.19,8.06-2.44,15.89-10.39,18.44-1.67.54-3.41.84-5.39,1.31-2.1,23.12-4.21,46.21-6.34,69.6ZM15.86,484.05h468V406.51H304.59c0,10.48.12,20.69,0,30.9-.13,8.87-6.61,15.61-15.39,15.65q-39.28.22-78.58,0c-8.55-.05-15-6.73-15.28-15.26-.16-4.88-.1-9.77,0-14.65.08-5.66,3.23-9.17,8-9,4.57.11,7.52,3.5,7.61,8.94.07,4.67,0,9.35,0,14.15h77.74v-30.7H15.86Zm233.87-179.5c-6.56-23.73-12.94-46.85-19.33-70H35.25l-19.53,70ZM38.38,390.35H226.51c2.32-23.34,4.62-46.42,6.94-69.77H171.82c0,4.93.05,9.61,0,14.29-.11,10.08-6.45,16.61-16.4,16.67q-22.68.12-45.38,0c-9.72-.06-16.15-6.56-16.29-16.27-.07-4.84,0-9.68,0-14.69H32C34.15,344,36.26,367,38.38,390.35Zm436.86,0c-.14-1.34-.22-2.44-.36-3.54-2.08-17.11-5.34-34.17-6-51.34-1.69-41.62-2.21-83.29-3.19-124.94q-1.59-67.85-3.19-135.68c0-1.58-.24-3.15-.28-3.75l-9.81,9.23c-.07,1.24-.19,3.84-.34,6.43q-2.14,36.8-4.28,73.58c-2.47,42.07-4.74,84.15-7.54,126.2-1.75,26.28-4.26,52.5-6.57,78.74-.74,8.32-1.94,16.61-2.94,25.07ZM336.07,62.32H446.93c3.85-15.42,7.69-30.81,11.6-46.45H336.07ZM319.88,81.21V16H273.65V81.06c5.05-3.46,9.74-3.59,14.42-.45.93.63,2.12.89,3,1.55,3.85,2.8,7.42,2.55,11.51.07C307.87,79,313.42,75.53,319.88,81.21ZM109.56,335.6h46.25v-15H109.56Z"/></g></g></svg>