<svg xmlns="http://www.w3.org/2000/svg" viewBox="0 0 497 497.05"><defs><style>.cls-1{fill:#f89721;}</style></defs><title>Web</title><g id="Layer_2" data-name="Layer 2"><g id="Layer_1-2" data-name="Layer 1"><path class="cls-1" d="M249.16,0H249A248.49,248.49,0,0,0,0,248.24C0,385.33,111.24,497,248.07,497.05h.2A248.52,248.52,0,0,0,497,248.55C497,111.61,385.83.11,249.16,0ZM218.48,25.88a76.43,76.43,0,0,1,12.67-5.95c2.09-.83,4.26-1.69,6.42-2.65l2.11-.93V119.08l-1.28.19a46.67,46.67,0,0,1-6.41.33c-16.66,0-52.67-4.07-71.36-8.41l-1.72-.4.67-1.63C173,76.35,187.66,45.3,218.48,25.88ZM84.14,85.39C113.81,56.26,147.47,36.61,187,25.3l5.28-1.51-3.78,4c-19.17,20.24-33,43.91-46.1,79.13l-.52,1.39L82.43,87.07Zm-67,152.71c2.76-51.43,20.5-97.52,52.71-137l.68-.83,66.16,24.52-.39,1.33c-9.83,34.06-15.17,70.73-16.32,112.09l0,1.46H17.08ZM70.78,396.67l-.68-.79C38.62,359.2,18.46,306.77,17.49,259l0-1.53H120l0,1.46c1.24,41.67,6.59,78.29,16.38,111.94l.39,1.34Zm114.94,74.24C147.51,460.48,114.57,441.39,85,412.54l-1.51-1.48,1.9-.94c16.17-8,33.83-14.36,55.58-20l1.31-.34.48,1.27c12.69,34,26.4,57.85,44.44,77.43l3.54,3.84Zm53.87,8.33-1.79-.36c-9.93-2-19.13-6.43-28.1-13.61-20.8-16.64-33.2-39.49-41.68-57.53-2-4.34-3.89-8.86-5.85-13.65-1-2.38-2-4.86-3.1-7.51l-.78-1.86,81.3-8.82Zm.09-119.39-1.41.09c-2.9.18-5.8.32-8.69.46-6.25.31-12.71.62-19,1.35-16,1.86-32.91,4.14-50.19,6.79a16.14,16.14,0,0,1-2.48.22c-3,0-5.06-1.29-6.22-5.58a431.21,431.21,0,0,1-14.42-99.05c0-1.49,0-2.93,0-4.15a3.07,3.07,0,0,1,.39-1.27c.06-.12.13-.25.2-.42l.39-.91H239.68Zm0-120.2H137.14l0-1.53c.75-38.21,6.05-74.59,15.76-108.12l.35-1.21,86.42,9.46ZM311.21,26.08c38.56,10.59,71.82,30,101.67,59.33l1.71,1.68L355.1,108.28l-.52-1.38C341.53,72.13,327.69,48,309.71,28.54l-3.57-3.86ZM257.5,17.93l1.75.31c8.13,1.41,16,4.88,24.12,10.6,15.27,10.8,27.76,26,39.31,48,3.74,7.11,7.05,14.47,10.55,22.26,1.65,3.66,3.35,7.44,5.16,11.35l.89,1.9-81.78,8.81Zm-.19,120.3,86.37-9.46L344,130c9.68,33,14.86,68.33,15.86,108.08l0,1.54H257.31Zm0,119.26H359.83l0,1.53c-.71,38.15-6,74.51-15.75,108.05l-.35,1.21-86.36-9.47Zm4.86,220.82a12.41,12.41,0,0,1-2,.3l-1.1.11-1.68.21v-103l78.28,8.37.32.86c.25.64.44,1.08.57,1.38a2.31,2.31,0,0,1,.25,1.85c-11.13,30.27-24.3,52.42-41.45,69.71C285.19,468.4,274.33,475,262.2,478.31ZM412.9,411.6c-29.57,29.11-62.46,48.57-100.55,59.48l-4,1.14,2.33-3.42c2.46-3.62,5.07-7.3,7.59-10.86,5.87-8.31,11.95-16.89,17.1-25.87s9.32-18.21,13.82-28.09c2-4.42,4.08-9,6.28-13.61l.58-1.23,58.53,20.78ZM479.83,259c-2.82,51.49-20.55,97.55-52.71,136.91l-.68.83-66.12-24.53.38-1.33c9.7-33.88,15.17-71.56,16.27-112l0-1.46H479.92ZM427.1,101.15c32.11,39,49.86,85.1,52.74,136.89l.09,1.59H377l0-1.46c-1.23-41.63-6.58-78.28-16.35-112l-.39-1.34,66.16-24.46Z"/></g></g></svg>